<?xml version="1.0" standalone="no"?>
<!DOCTYPE svg PUBLIC "-//W3C//DTD SVG 20010904//EN"
 "http://www.w3.org/TR/2001/REC-SVG-20010904/DTD/svg10.dtd">
<svg version="1.0" xmlns="http://www.w3.org/2000/svg"
 width="640.000000pt" height="1280.000000pt" viewBox="0 0 640.000000 1280.000000"
 preserveAspectRatio="xMidYMid meet">
<metadata>
Created by potrace 1.15, written by Peter Selinger 2001-2017
</metadata>
<g transform="translate(0.000000,1280.000000) scale(0.100000,-0.100000)"
fill="#000000" stroke="none">
<path d="M2905 12794 c-903 -50 -1691 -298 -2140 -676 -189 -159 -306 -331
-355 -522 -20 -79 -20 -93 -20 -5196 0 -5097 0 -5117 20 -5196 63 -245 228
-451 519 -646 411 -275 1012 -460 1741 -535 232 -23 828 -23 1060 0 729 75
1330 260 1741 535 291 195 456 401 519 646 20 79 20 99 20 5196 0 5103 0 5117
-20 5196 -77 301 -331 565 -750 778 -412 210 -904 342 -1500 401 -149 15 -686
27 -835 19z m600 -104 c825 -47 1525 -251 1990 -579 108 -76 263 -230 317
-316 92 -145 124 -257 116 -408 -10 -180 -85 -325 -257 -498 -304 -304 -867
-547 -1526 -659 -332 -56 -610 -80 -945 -80 -1056 0 -2021 289 -2471 739 -172
173 -247 318 -257 498 -11 211 67 387 257 573 108 107 205 179 364 269 583
335 1513 512 2412 461z m-2922 -1778 c109 -142 343 -320 578 -440 131 -67 375
-165 524 -211 840 -256 1908 -281 2785 -66 694 171 1228 483 1429 835 l31 55
0 -1375 c0 -1520 3 -1433 -65 -1573 -192 -392 -785 -726 -1580 -891 -357 -74
-643 -100 -1085 -100 -370 0 -532 11 -830 55 -908 136 -1622 500 -1835 936
-68 140 -65 53 -65 1572 l0 1375 36 -60 c19 -32 54 -83 77 -112z m2389 -4410
l396 -222 243 -28 244 -27 3 -108 c3 -107 3 -108 -20 -103 -13 3 -125 17 -249
32 l-227 26 -393 -127 c-217 -70 -400 -130 -406 -132 -10 -4 -13 22 -13 109
l0 114 273 78 c149 43 277 81 284 85 6 3 -117 74 -273 156 l-284 150 0 113 c0
88 3 113 13 110 7 -2 191 -103 409 -226z m130 -779 c122 -48 176 -94 244 -209
10 -16 31 -8 256 99 135 64 248 117 251 117 4 0 7 -53 7 -117 l0 -118 -233
-106 -232 -106 -3 -76 -3 -75 28 -6 c15 -3 107 -14 203 -26 96 -11 190 -22
208 -25 l32 -6 0 -105 0 -106 -37 6 c-21 3 -267 33 -548 66 -485 58 -513 62
-572 91 -59 28 -100 68 -134 129 -17 31 -18 344 -1 405 16 56 57 115 100 147
64 45 124 58 247 54 94 -2 121 -7 187 -33z m-400 -889 l77 -7 3 -264 c3 -241
5 -266 21 -278 10 -7 64 -18 120 -25 56 -6 110 -14 120 -16 16 -5 17 9 17 195
0 110 3 202 8 204 4 3 52 0 107 -7 l100 -11 5 -205 5 -205 140 -17 c77 -9 155
-17 173 -17 l32 -1 0 270 c0 266 0 270 21 270 11 0 63 -5 115 -12 l94 -11 0
-379 c0 -208 -2 -378 -5 -378 -33 0 -1052 122 -1084 130 -89 22 -157 73 -197
150 -17 31 -19 65 -22 334 l-3 299 38 -6 c21 -3 73 -9 115 -13z m-17 -847 l90
-12 3 -151 3 -151 32 -6 c17 -2 260 -31 539 -63 l508 -59 0 -108 c0 -106 0
-107 -22 -102 -13 2 -241 29 -508 60 -267 30 -500 57 -517 60 l-33 6 0 -240 0
-239 38 -6 c20 -3 253 -31 517 -61 264 -31 490 -58 503 -60 21 -5 22 -10 22
-111 l0 -105 -32 6 c-18 3 -247 30 -508 60 -261 30 -490 57 -507 60 l-33 6 0
-150 0 -151 -42 6 c-24 3 -74 9 -113 12 l-70 7 -3 753 -2 752 22 -1 c13 0 64
-6 113 -12z m1175 -1642 c0 -100 -1 -105 -22 -109 -13 -3 -72 -15 -133 -26
-60 -12 -118 -24 -127 -26 -16 -5 -18 -24 -18 -218 l0 -213 150 -64 150 -64 0
-112 0 -111 -127 55 c-71 30 -340 147 -600 259 -259 111 -485 210 -502 218
-77 40 -113 148 -72 213 11 18 31 39 44 48 21 13 1174 251 1235 254 21 1 22
-1 22 -104z m-900 -911 c88 -20 144 -55 176 -109 l26 -45 31 47 c76 113 264
137 435 56 81 -38 172 -132 202 -208 23 -57 24 -74 28 -337 l4 -277 -34 5
c-18 2 -264 31 -546 64 -540 63 -562 67 -639 126 -18 13 -44 45 -59 70 -22 38
-27 60 -31 147 -11 214 26 347 117 414 83 61 171 76 290 47z"/>
<path d="M2985 12570 c-337 -29 -596 -119 -665 -233 -19 -31 -20 -53 -20 -493
l0 -461 29 -40 c114 -157 576 -257 1037 -224 396 29 654 116 720 242 21 42 21
926 0 968 -52 100 -253 184 -537 226 -131 18 -428 27 -564 15z"/>
<path d="M2065 12142 c-11 -2 -83 -24 -160 -49 -361 -116 -641 -305 -736 -499
-32 -64 -34 -75 -34 -169 0 -97 1 -104 39 -180 154 -311 702 -553 1451 -640
447 -52 965 -39 1398 35 565 97 1012 305 1173 547 56 85 76 153 72 254 -3 75
-7 94 -41 162 -94 190 -358 368 -722 486 -202 66 -195 65 -210 14 l-13 -43 42
-11 c83 -21 283 -92 376 -133 222 -98 394 -234 456 -361 42 -87 41 -177 -3
-266 -132 -265 -650 -495 -1313 -583 -399 -52 -881 -52 -1280 0 -528 70 -973
232 -1193 434 -104 95 -148 181 -148 287 0 217 249 421 699 572 64 22 136 45
158 50 l42 11 -12 39 c-13 47 -15 49 -41 43z"/>
<path d="M3030 9255 l0 -395 -392 -2 -393 -3 -2 -162 -2 -163 394 0 395 0 2
-397 3 -398 165 0 165 0 3 398 2 397 395 0 394 0 -2 163 -2 162 -392 3 -393 2
0 395 0 395 -170 0 -170 0 0 -395z"/>
<path d="M2839 5525 c-41 -22 -59 -81 -59 -194 0 -139 -11 -132 229 -159 130
-15 154 -16 158 -4 3 7 3 58 0 112 -10 190 -76 260 -242 260 -33 -1 -72 -7
-86 -15z"/>
<path d="M3088 2096 c-125 -23 -230 -45 -234 -49 -4 -4 -2 -7 4 -7 7 0 115
-43 240 -95 126 -52 232 -95 235 -95 4 0 7 65 7 145 0 110 -3 145 -12 144 -7
-1 -115 -20 -240 -43z"/>
<path d="M2831 1214 c-38 -27 -51 -74 -51 -188 0 -99 1 -106 23 -120 20 -13
176 -36 241 -36 l26 0 -1 113 c0 148 -16 193 -79 225 -53 26 -125 29 -159 6z"/>
<path d="M3339 1195 c-43 -23 -53 -58 -57 -212 -2 -79 -2 -143 0 -143 1 0 77
-9 168 -20 91 -11 171 -20 178 -20 15 0 17 181 2 261 -13 68 -34 98 -90 127
-52 26 -159 30 -201 7z"/>
</g>
</svg>
