<?xml version="1.0" encoding="utf-8"?>
<!-- Generator: Adobe Illustrator 23.0.3, SVG Export Plug-In . SVG Version: 6.00 Build 0)  -->
<svg version="1.1" id="Layer_1" xmlns="http://www.w3.org/2000/svg" xmlns:xlink="http://www.w3.org/1999/xlink" x="0px" y="0px"
	 viewBox="0 0 464 560" style="background:#d0d0d0;" xml:space="preserve">
<style type="text/css">
	.st0{fill:#30BCED;stroke:#2A2C39;stroke-width:2;stroke-linecap:round;stroke-linejoin:round;}
	.st1{opacity:0.5;fill:#EA1366;enable-background:new    ;}
</style>
<g id="BangladeshMap">
	<path id="BGD1806" class="st0" d="M249.2,314.6l3.4,2.5l0.7,2.1l-3.2-2.3l-1.7-0.7l-0.5,1.1l-1.6,0.8l-1.6-0.5l-1.6-1.2l-2.7-2.9
		l-0.9-1.4l0.2-0.9h2.3l3.1,1.1L249.2,314.6L249.2,314.6z M283.7,142l-0.2,4.1l1.3,4.2l0,1.3l-0.3,0.9l-0.9,1.4l-0.8,1.6l-1,3.5
		l5.7,9.5l2.5,1.1l10.4-1.1l1.1,4.3l0.6,2l0.3,4.3l-0.6,5l0.6,1.7l0.5,0.2l1.6-0.2l2.7,0.1l0.9,0.4l0.5,0.7l0.4,1.2l0,0.7l-0.9,1.6
		l-0.1,1.8l-0.3,0.5l-2,1l0,0.7l1.1,1.4l0.4,1l1,1l1.6,0.9l-1.2,3.2l-0.9,1.8l-0.8,1.1l-0.9,0.9l-0.1,0.7l0.7,0.8l0.6,0.4l1,0.1
		l1,0.5l0.5,2.3l-0.1,1.2l-1.5,1.1l1.9,1.7l1,1.3l0.2,0.7l-0.4,0.9l-0.6,0.2l-1,1.1l1.2,1.9l-1.9,1.3l-2.9,1.3l-1.3,3.3l-0.7,0.6
		l-0.7,1.1l-1.1,0.8l-1.5,0.5l-1.7,0.2l-0.8,0.4v1l0.2,1.1l-0.2,0.8l-0.6,0.1l-0.6-0.2l-1.2-0.9l-2.9,4l-2,0.7l-0.5,0.3l0.4,1.9
		l-0.1,0.4l1.6,2.3l-0.6,1.4l1.7,1l-0.6,2l-1.7,1.9l-1.4,0.9l-1,1L287,252l0.4,1.8l-0.4,2.3l-1.8,4l-3.3,4.6l-1.2,1l-0.8,0.4l-1-0.3
		l-2.6-1.7l-1.7,0.8l-0.7,0.1l-2.7-0.1l-1.2,0.3l-1.1,0.9l-0.9,1.3l0,0.8l0.5,2.1l-0.1,1.4l-1.8,4.7l-1.4,2.1l-0.2,0.9l0.3,0.6
		l1.3,0.9l0.9,1l0.2,0.7l-0.1,0.7l-0.6,1.3l-0.8,0.8l2.3,2.4l0.8,1.1l-0.2,0.5l-1.3,0.2l-1,0.5l-0.4,0.8l0.6,1.1l-0.9,1l-1.9,1.3
		l-0.8,1.2l-2.1,0l-0.2,0.4l0.8,0.9l1.6,1.3l-0.6,2l-1.5-0.9l-1-0.1l-1.6,1l-2.2,0.7l-1.3,0.9l-0.4-0.3l-1.3-3.8l0.4-2.7l1.4-2.2
		l2.2-1l-0.7-0.2l-0.5,0.2l-0.7-0.9l-1.5,0.2l-3.2,1.3l0.5,1.3l-0.4,0.8l-1,0.4l-1.4,0.1l-1.5-0.1l-1.1-0.4l-2.2-1.4l0.7,1.5l1.3,1
		l1.4,0.6l1.5,0.2l3.2,0.1l0.7,0.8l0.2,8.5l-0.3,1l-0.7,0.6l-0.7,1.4l-0.6,1.7l-0.2,1.5l-2.9-1.3l-17-3.4l-3.3-1.2l-3-2l-0.1,1.1
		l0.8,1l11.3,6.9l1.4,1.1l0.8,1.2l0.6,1.2l0.8,0.9l2.7,0.6l2.4,1.2l1.4,0.5l5.7,0.6l0.7,0.6l2.5,3.9l0.4,1.6l0.3,3.4l-1-1.5
		l-0.8-0.9l0.4,1.9l0.4,5.6l-0.3,2.3l-2.3,3.4l-0.6,0.6l-1-0.3l-0.2-0.8l0.4-0.9l0.9-0.7v-0.6h-0.6l-1,1.3l-1,0.9l-1.2,0.6l-1.6,0.4
		l-3.3-0.1l-1.1,0.4l-0.4,1.6l0.1,0.6l-0.9,1.4l-1.5,0.9l-2.3-1.1l-1.2-1.1l-2-1.5l-2.8-0.6l-1.3,0.5l-1,0.6l-0.8,1.5l0.9,0.2
		l1.3-0.2l0.7,0.5l0,1.6l-0.8,1.5l-0.6,0.6l-1,1.6l-0.9,0.6l-1.3,0.2l-1-0.4l-1.3-0.9l-1.7-2.1l-0.5-1.6l-0.2-2.4l-0.3-0.8l-0.5-0.7
		l-0.7-0.3l-1-0.2l-4.3,0.8l-0.8,1.5l-0.6,1.8l-1.6,0.9l-1.5,1.5l-0.7,1.1l-1.7,1.6l-0.5,0.6l-1.2,2.6l-2.2,3l-2.1,2.1l-1.2,0.6
		l-1.5,0.3L196,360l-3.6-1.9l-0.6-0.6l-1.8-2l-1.9-0.9l-0.5-0.4l-0.4-0.6l-0.5-1.7l-0.4-0.9l-1.1-1.6l-2.8-2.6l-1.4-1.6l-2.1-4.6
		l-0.9-1.3l-0.7-0.4l-1.5-0.3l-0.7-0.6l-0.6-1.3l-0.2-0.9l0.1-1l1.7,1.5l0.9,0.3l0.6-1.3l1.3-1.9l0.6-0.4l1.1-0.4l0.3-0.9l-0.5-0.9
		l-1.3-0.5l-1,0.2l-1.5,1.2l-1.1-0.1l-1.3-1.7l0.3-1.9l-0.2-1.6l-4.6-1.3l0.7-1.4l1.7-1.7l1-1.5l-2.6,0.1l-2.2-2.6l-1.3-3.6l0.1-3
		h0.6l0.6,0.9l1.1,0.5l-1.6-7.8l-0.8-1.9l-1.7-1.6l-2.7-1.5l-2.5-0.3l-1.4,2.1l-0.6-1.2l0-1.4l1.7-1.3l0.8-0.9l-0.5-0.4l-0.9-0.4
		l-0.5-1l-0.4-1.2l-0.6-0.9l-1.1-1.3l-5.2-7.7l-0.9-0.4l-1.1,0.1l-1.4,0.4l-2.5,0.2l-3.6-4.6l-0.2-0.9l4.5-11.8l0.1-1.9l-0.2-0.8
		l-1.3-3.8l2.9,1.9l7.8,3.4l2,1.2l3.5,3.2l2.2,0.4l1.5-0.5l2.6-1.7l1.4-0.6l4.8-0.4l2-0.5v-1.1l-0.9-4.4l-0.2-1.4l0.4-2.1l1.1-2.9
		l7.5-6.2l1.1-1l0.8-1.3l0.6-1.3l0.2-3.4l0.9-1.6l-0.2-0.2l0.2-1.4l0.4-1.4l-0.4-1l0.2-0.9l-0.3-0.9l-1.6-0.4l-0.1-2.6l-1.2-1.1
		l-3.2-3.6l-0.1-0.8l0-3.8l-0.5-3.7v-1l0.8-6.9l0.1-3.6l0.7-3l0.1-1.9l-0.1-1.8l-0.2-1.2l0.4-1.1l1-1.2l0.6-2.4v-1.2l-0.4-1.9
		l0.1-1.1l1-4.4l0-2l-0.4-1.8l-0.6-1l-0.7-0.9l-1.6-1.5l-2.6-1.4l-1.5-1l-0.9-1l-1.2-2.3l-0.8-1.9l-2.1-10.4l-0.1-0.8l0.5-8.1
		l0.8-5.1l1.2-5.2l1.9-4.1l0.8-1.3l1.1-1.2l1.3-1.9l0.5-2.4l-0.8-5.2l2-4.8l0.8-1.4l1.3-0.8l1.4-0.3l-0.4,2.8l0.3,3.3l0.8,3.4l1,1.9
		l1.4,0.2l3.1-1.3l3.3-0.1l19.3,8.2l13.7,3.1l6.8,2.9l3.1,0.1l8.8-1.9l7.1,0.6l3.5-0.9l1.2,0l1,0.3l1.9,0.9l3.2,0.6l0.7,0l0.5-0.3
		l0.9-1l0.4-0.2l1.4,0.2l1.1,0.7l1.1,0.9l1.3,0.6l2.5,0.3L283.7,142L283.7,142z"/>
	<path id="BGD2432" class="st0" d="M127.8,466.5l-1.1,1.6l-2.6-1.4l-4.4-5.3v-0.4l0.5-0.6l0.6-1.8l0-1.8l-0.9-3.1l-0.2-1.5l-0.6-1.6
		l0.1-0.9l1.1,0l0.4,0.2l0.5,1l0.3,1.3l0.9,6.3l1,2.8l2,1.2l2,1.3L127.8,466.5L127.8,466.5z M145.3,260.4l1.3,3.8l0.2,0.8l-0.1,1.9
		l-4.5,11.8l0.2,0.9l3.6,4.6l2.5-0.2l1.4-0.4l1.1-0.1l0.9,0.4l5.2,7.7l1.1,1.3l0.6,0.9l0.4,1.2l0.5,1l0.9,0.4l0.5,0.4l-0.8,0.9
		l-1.7,1.3l0,1.4l0.6,1.2l1.4-2.1l2.5,0.3l2.7,1.5l1.7,1.6l0.8,1.9l1.6,7.8l-1.1-0.5l-0.6-0.9h-0.6l-0.1,3l1.3,3.6l2.2,2.6l2.6-0.1
		l-1,1.5l-1.7,1.7l-0.7,1.4l4.6,1.3l0.2,1.6l-0.3,1.9l1.3,1.7l1.1,0.1l1.5-1.2l1-0.2l1.3,0.5l0.5,0.9l-0.3,0.9l-1.1,0.4l-0.6,0.4
		l-1.3,1.9l-0.6,1.3l-0.9-0.3l-1.7-1.5l-0.1,1l0.2,0.9l0.6,1.3l0.7,0.6l1.5,0.3l0.7,0.4l0.9,1.3l2.1,4.6l1.4,1.6l2.8,2.6l1.1,1.6
		l0.4,0.9l0.5,1.7l0.4,0.6l0.5,0.4l1.9,0.9l1.8,2l0.6,0.6l3.6,1.9l1.3,1.2l1.6,2.9l-1.2,1l-0.9,0l-0.5,0.2l-0.6,1.1l0,0.6l0.6,0.6
		l-0.2,0.7l-1.3,0.7l-0.3,0.7v0.7l0.4,0.9l0.8,0.4l0.4,0.4l-0.4,0.8l-2.7,1.8l-0.8,0.9v0.5l0.6,0.3l2.2,0.2l0.8,0.2l0.4,0.7
		l-0.1,1.3l-0.6,0.2l-0.9-0.3l-1,0.4l0,0.4l0.9,0.9l0.6,0.8l1,2.9l1.4,1l0.5,0.5l0.7,2.1l0,1.2l-0.2,1.4l-0.8,1.7l-0.3,1.5l0.4,0.8
		l1.4,0.7l0.4,0.7l0.7,2.2l-2.8,2.9l-1.2,1.5l-0.5,1.5l-0.7,1.5l-1.5-0.4l-2.6-2.1l0.2,2l0.5,1.6l0.3,1.6l-0.3,2l-3.6,7l1.1,2
		l0.9,3.4l1,6.3l0.1,3.3l-0.3,1.6l-0.7,1.2l-1.4,0.8l-1.3-0.2l-1.4-0.4h-1.6v0.7l1.9,0.8l1.5,1l1.1,1.5l0.4,2.2l-0.1,0.9l-0.4,1.7v1
		l0.4,0.9l1.2,1.9l0.7,1.8l0.9,1l0.5,1.2l-0.6,1.5l-0.6,0.2l-1.9,0.4l-2.2,2l-1,1.5l-0.8,0.5l-1.6,0.6l-0.9,0.2l-0.4-0.5l-0.4-1.3
		l-1.1,0.3l-1.3,0.9l-1.1,0.5l-1.4-0.1l-1.6-0.4l-1.5-0.6l-1.1-0.9l-0.7-1.7l0-1l0.9-1.6l-0.2-0.9l-1.3-1.8l-2.5,5.2l1,1.7l1.7,2.3
		l1.9,2.1l1.7,0.9l0.8,0.9l-0.9,1.9l-1.9,1.3l-2.1-0.6l-1.1-0.7h-1l-2.1,0.4l-0.2,0.5l1,2.5l0.2,0.8l-1.6,1.7l-1.9-1.2l-2.5-3.8
		l0.1-1.6l-1-3.9l0.2-2.1l0.7-1.2l1.6-1.9l0.7-1.5l0.3-1.6l-0.4-6.8l0.6-5.5l0.5-1.9l2.1-3.8l0.4-2.1l-0.3-2l-0.8-2l-1.1-1.8
		l-1.2-1.4l0-1.3l2.7-3.5l0.7-1.6l0.1-2l0.3-1.9l0.6-1.9l0.9-1.6l-1,0.7l-0.8,1.2l-1.2,2.6l-1,1l-0.3,0.9l0.8,2.2l-0.5,0.8l-1.7,1.3
		l-1,1.6l0.1,1.3l1.8,3.2l0.7,2.1l0,2.1l-0.2,1.1l-0.9,1.8l-0.2,0.9l-0.7,6l-0.4,1.4l-1.6,0.9l-0.7-1.5l-0.1-4.2l0.2-1l0.9-2
		l0.1-1.2l-3.9-9.4l-0.2-1.9l0.4-4.2l-0.1-1.9l-0.9-2h-0.6l-0.7,6.2l0.7,11.9h0.6l0.1-1.3l0.4-1.2l0.7-0.4l0.4,1.9l0.4,1.2l0.5,0.8
		l0.5,1l-0.1,1.4l-0.7,2.4l-0.4,0.4l-1.1,0.2l-0.1,1l0.6,1l0.3,1l1.1,2.3l0.6,0.9l0.2,0.6l-0.8,5l-0.9,1.1l-1.1,0.9l-1.2,1.1l-1,1.6
		l-0.1,1.3l0.3,1.5l0.2,2.3l-0.3,2.1l-0.9,1.8l-1.2,1.5l-3.2,2.7l-1,0.1l-2.2-2.5l-0.5-1.4l-0.1-2.4l0.3-4.2l0.4-1.7l1.2-2.9
		l0.2-2.2l-0.4-1.9l-1.6-3.1l-0.4-1.6h-0.6l-0.5,1.4l0.2,1.2l0.6,1.2l0.4,1.3v1.5l-0.3,0.9l-1.4,1.5l-0.9,1.1l-0.6,1l-1.4,3.5
		l-0.4,0.8l-0.4,0l-0.5-1.3h-0.6l0,2.4l0.9,3.7l-0.4,2.3l-1.4,3.2l0.2,1l1.8,0.9l-1,1.2l-1.5,1.1l-1.7,0.8l-1.7,0.2l-1.6-1l-0.5-1.7
		l0.3-1.7l0.9-0.7l0.2-1l-2.7-7.7l-0.2-1.9l-0.4-0.4l-0.8,0.5l-0.9,0.9l-0.4,0.9l-0.5,0.4l-1.1-0.3l-1.9-1l-0.9-0.8l-0.4-0.6
		l-2.2-7.7l-0.2-1.6l0.2-1.9l0.9-4l0-2.2l-0.6-2l-1.9-2.7l-0.4-1.5l0.5-4.3l-0.3-1.7l1.5-2l-0.2-2.3l-0.5-1.9l-0.7-1.6l-3.8-5
		l-0.9-2l1.3-0.9l-1.4-2.5l-0.5-1.1l-1.1-5v-0.9l0.2-1l0.7-1.3l0.2-0.8l-0.4-2.2l-1.6-3.8l-0.8-3.5l-1.1-0.9l-2.7-1l1.9-1.3l0.5-2.2
		l-0.4-2.5l-0.9-2.4l-1.1-2l-0.3-2.1l-0.3-1.2l-1.1-2.7l-0.2-1.7l0.6-1.3l1-1.2l0.9-1.5l0.4-1.3l0.3-1.9l0.2-1.8l-0.2-1.3l-1-0.9
		l-2.4-0.8l-1-1.3l-1.9-4.4l-0.9-1.5l-1.6-2.1l-0.4-1l0.1-1.9l0.8-2.7l0.2-4.9l1.2-2.4l4.7-5l2.3-2l0.8-0.9l0.4-1v-0.8l-0.5-0.4
		l-2.4,0.1l-1.5-0.6l-6.1-2.1l-1.4-0.3l-1.2,0.2l-1.3,1l-0.7,0.4l-0.9,0l-5.7-1.9l-1.2-1l-0.9-1.8l-0.1-2.1l0.8-1.9l2.1-3.4
		l4.2-11.3l0.2-2l-1.2-1l-1.1,0.9l-1,1.6l-1.1,0.4l-1.3-2.5l-1-0.4l-2.5-1.8l-1.4-1.6l-2.1-3.7l-1.3-1.4l-0.7-0.2l-1.7,0.2l-0.9-0.4
		l-0.9-0.9l0-0.6l0.3-0.7l0.2-1.2l-0.4-0.4l-0.9-0.2l-0.8-0.4l-0.2-1l1.9-8.7l-0.1-0.9l-0.6-1.5l0-0.9l0.4-1l1.3-2.1l0.4-1.1v-0.9
		l-0.3-1.7l0.3-0.9l1.4-1.1l1.7-0.1l1.8,0.2l1.6-0.4l1.2-0.9l3.3-3.3l0.9-1.1l0.3-1.7l-0.2-2.1l-0.5-1.8l-0.6-1.1l1.1-1.9l1-1.3
		l0-0.9l-2.1-0.5l-0.3-1.2l-1.6-1.4l-0.4-1.1l0.1-0.9l0.5-2l0.1-1.1l-0.4-1.9l0-0.9l0.5-1.2l0.9-0.9l1.9-0.7l1.4-0.6l0.4,1.4
		l1.4,2.1l0.6,0.5l2.1,1.1l1.3,0.9l0.7,0.4l1.7,0.3l1.6-0.4l5.6-2.7l1.2-0.8l0.9-1.2l1.7,0.1l1.6,0.8l0.7,0.6l2,2.7l3.2,3.1l0.8,2.4
		l1.8,2.3l0.4,0.9v1l-0.4,2.1l0.2,0.9l0.9,1l3.4,2.9l1.9,1.2l1.9,0.9l2.4,0.4l7.2-0.8l2.3,0.2l2.2,0.5L145.3,260.4L145.3,260.4z"/>
	<path id="BGD2475" class="st0" d="M253.7,448.1l-0.9,2.1l-0.7-0.5h-0.6l-0.7,1.9l-1.5,2l-1.7,1.4l-1.5-0.1v-0.7l1.7-0.5l0.7-0.1
		l-1.2-1.5l-0.6-0.4l0.6-0.6l-0.2-1.6l0.2-1l0.7-1.1l5.9-4v1.9l0.6,1.1l0.5,1.5L253.7,448.1L253.7,448.1z M231.2,456.2l-0.8,0.5
		l-0.4-0.2v-4.4l0.4-2.3l0.9-2.1l1.9-3.6l1.5-1.7l2-0.5l-0.3,2.1l-2.2,3.7l-2.1,7.3L231.2,456.2L231.2,456.2z M232.4,444.6h-0.5
		l0.5-2l1.1-2.7l1.3-2.1l1.2-0.2l-0.6,2.3l-2.5,2.8L232.4,444.6L232.4,444.6z M239.9,450.7l-1.4,0.7l-1.2-0.6l-0.7-1.4v-1.6l0.5-1.3
		l0.6-1l0.5-1.2l0.2-2l-0.2-3l0.3-0.9l1.1-0.9l3.9,4.2l1.1,2.5l-0.9,3l-1.9,1.1L239.9,450.7L239.9,450.7z M255.7,426.6l-1.7,5.8
		l-0.2-1.5l-0.5-1.1l-1,3.2l-0.5,3.6l-0.8,3.2l-1.9,2.2l-1.6,0.5l-0.9-0.4l-0.4-1l-0.1-1.3l0.4-0.9l3.1-2.7l-0.5-0.6l-3.8,2.2
		l-0.5,1h-0.5l0.2-2.2l0.5-2.1l1-1.5l1.5-0.6l1.1-0.7l2.3-2.6l1.1,0l0.7-1.1l1-1l1-0.6L255.7,426.6L255.7,426.6z M285.4,422.5
		l0.2,0.9v5.1l-0.6,2.2l-1.7,0.4l-0.9-1.5l0.1-2.6l0.6-2.8l0.7-2.1l0.5,0.7l0.5-0.6L285.4,422.5z M288.3,423.7l-1,0.9l0-5l0.5-1.9
		l1.2,0.5l0.1,1.7l-0.2,2L288.3,423.7L288.3,423.7z M288.5,415.6l-3.3,5.1l-1.4-0.6l0.3-1.3l0.9-1.6l0.5-1.3l0.3-4.3l0.5-2.3
		l0.9-1.5l0.6,0.7l0.5,1.4l0.4,1.7l0.1,1.9L288.5,415.6L288.5,415.6z M257.4,401.4l1.3,2.3l1,2.6l0.2,2.2l-1-1.9l-0.2-0.7l-0.6,1.6
		l0.6,3.8L258,413l-0.4-0.9l-0.2-3h0.6l-0.6-1.7l-0.6-3.7l-0.6-1.7l-0.5-0.4l-1.1,0l-0.2-1.3l0.2-0.6l0.6-0.2l1,0.5L257.4,401.4z
		 M259.2,401.5l-0.5,0.6l0.5-5.5l0.6,0.3l0.4,1l0.2,1l0,1.9L259.2,401.5L259.2,401.5z M274.4,427.7l-4.6,7.2l-1.5,1.3l-0.6-1.3
		l-2,2.1l-0.9,0.5l-2.3,3.9l-2.9,1.3l-0.9-0.1l-0.7-2.1l1-2.7l1.6-2.9l1-2.6l-4.9,7.1l-1.4,0.3l-0.6-1.9l0.4-2.7l1-2.7l1.3-2.1
		l-1-2.1l0.9-3.5l3.6-7.9l0.4-1.5l0.3-1.8v-5.5l0.5-1.6l-0.7-2.8l-0.2-1.9l0.4-1.1v-0.6l-1-1.7l-1-5.7l-1-2.3l-1.4-1.3l-4.9-3.5
		l-1.4-0.4l-0.4-3.5l0.2-3.3l1.9-7.7l0.6-1l0.9-0.7l1.5-0.6l1.5-0.4l1.7-0.2l0.9,2.8l1,3.4l1.1,2.6l1.5,3.1l1.3,2.3l1.4,1.6l1.4,2.2
		l0.6,4.6l1.1,2.9l2.1,2.1l3.8,3.5l1.8,2.2l-1.7,9l0.1,15.2L274.4,427.7z M255.1,359.4l1.8,1.9l1.6,0.7l1.6,1.9l1.3,1.9l-1.4,0.3
		l-3-0.6l-3.2-0.2l-2.5,2.4l-1.3,0.5l-1.3,1.4l-0.2,2.3l0.4,1.5l-1.2,1.6l-0.9-1l-1.1-1l-0.1-0.9l-0.3-1l-0.9-0.6l-2.3-0.7l0.7-1.1
		l0.1-0.9l-0.3-2.6l0.1-1.7l0.2-1.6l0.6-1.3l1.2-0.5l3,0.5l1.4-0.2l0.6-1.3l0.7-0.1h3.4L255.1,359.4L255.1,359.4z M258.5,350.1
		l1.9,1.5v0.6l-2.3,0.1l0.3,0.6l0.9,0.8l0.7,0.9l0.4,0.9l-2.7-0.3l-0.8-0.3l-0.6-0.7l-1-1.9l-0.8-0.6l-0.9-0.3l-0.6,0.5l-0.8,0.3
		l-1,0.1l-2.3,0l-0.9-0.2l-1.4-2.1l1.7-3l2.9-2.4l2.1-0.2l1.9,1.6L258.5,350.1L258.5,350.1z M243.9,346.6l-0.7,0.4l-0.7-3.9
		l-0.4-1.4h3.4l1.4-0.6l0.6,0.9l-0.1,0.7l-1.3,1.3L243.9,346.6L243.9,346.6z M241.5,343.1l0.4,2.1l1.2,3l1.6,2.8l1.7,2.3l0.2,0.5
		l-0.1,1.1l0.2,0.7l0.9,0.2l1.3,1.1l0.4,0.7l-0.4,0.9l-1.3,0.6l-1.3-0.2l-1.3-0.3l-1.3,0.1l-1.6,2.1l-0.8,3.1l-1,2.6l-2.5,0.6
		l1.4,1.3l-0.4,1.3l-1.2,0.5l-1-1.1l-1.9,1.3l1.3,1l2.5,0.9l1.7,0.9l0.8-1.7l1.5,0.3l1.5,1.3l0.9,1.4l0.3,1l0.3,2.9l1,3.1l0.4,3.3
		l-0.2,0.7l-0.9,1.1l-0.8,0.4l-2,0.3l-0.8,0.5l-0.5,1.4l-1,5.2l0.2,0.4l1.1-1l0.4-0.6l0.1-1l-0.2-1.9l0.2-1l0.9-1.3l1.3-0.8l1.5-0.2
		l1.6,0.3l3.1,1.9l1.6,2.7l1,3.1l1.5,3.3l-1.8-0.7l0,2.1l0.6,1.7l1.7,3.4l0.4,1.9l0.1,2l-0.5,3.9l-2.8,7.2l-2.1,3.3l-1.7,0.4
		l-2.3,1.3l-0.9,0.8l-0.4,0.9l-0.2,1.3l-0.5,1.5l-2.5,4.4l-0.9,1l-1,0.4l-1.2-0.3l-1.5-0.6l-1.3-0.9l-0.6-0.7l0.5-2.3l2.1-4.5
		l0.4-2.3l-1-2.7l-0.2-1.3l0.6-2.9l-0.3-1.2l-1.5-0.4l0.4,1.9l-0.9,4.2l0.2,1.3l0.7,0.6l1,0.6l0.3,0.9l-0.1,0.7l-0.4,0.6l-1.1,1.3
		l-0.2,1.3l-0.8-0.3l-0.3,0.2l-0.2,1l-0.3,2.9l-0.7,2l-1.6,2.4l-1.3,1.6l-0.4,1.6l-1.6,3.4l-0.4,1.7l-0.4,3.6l-0.8,3.5l-0.7,1.8
		l-0.9,1.3l-4.8,4.1l-1.2,0.9l-1.6,0.3l-1.8-0.3l-3.3-1.4l-1.5-0.3l-1.4-0.8l-0.4-1.5l0.6-1.2l1.5,0.3l-0.6-1.3l0.5-0.9l0.9-0.9
		l0.5-1.1l-0.4-1.3l-0.5-0.4l-1.5,3.8l-0.9,0.8l-0.8,0.3l-1.1,1.3l-0.8,0.4l-0.7-0.2l-1.1-1l-1-0.1l0.6-2.5l0.2-5.1l0.9-2.1l0.8-0.7
		l2-1.4l0.8-1.1l0.4-1.5l0.5-2.3l0.8-1.3l3.6-3.3l1.5-2.3l0.8-0.4l1.9,0.7l1.8-1.3l1.4-2.1l0.6-2.5l-0.3-2.5l-1.5,4.1l-1.1,2.1
		l-1.3,0.9l-2.3,0.3l-1.4,0.9l-5.2,5.6l-0.6,1l-0.7,2l-1.1,1.7l-0.3,0.7l-0.4,0.4l-1.3,0.2l-0.9-0.1l-2.8-1.1l0.5-1.3l0.1-1.4
		l0.7-1.1l0.8-0.7l0.8-0.4l0.6-0.6l0.2-1.5l-0.3-2.8l0.4-1l0.3-1.4l0.8-0.9l1-0.4l0.8-0.6l0.5-1.1l-2.3,0.8l-1.1,1.6l-1.4,4.6
		l-0.8,1l-2.3,2.3l-0.5,0.8l0.2,4.2l-0.2,1.2l-1.3,1.1l-1.6-0.6l-1.3-1.6l-0.6-1.8l-0.2-0.9l-0.8-2.1l-0.2-1.1l-0.2-6.9l-0.8-3.9
		l-0.2-2.4l-0.2-0.9l-1.1-1.8l-0.4-0.9l-0.3-1.2l-0.1-1l0.4-2.3l1.7-4.3l7.2-10.5l0.5-1.2l0.3-1.1l0.5-1l-1.3,0.7l-0.3,0.3l-0.7-2.2
		l-0.4-0.7l-1.4-0.7l-0.4-0.8l0.3-1.5l0.8-1.7l0.2-1.4l0-1.2l-0.7-2.1l-0.5-0.5l-1.4-1l-1-2.9l-0.6-0.8l-0.9-0.9l0-0.4l1-0.4
		l0.8,0.3l0.6-0.2l0.1-1.3l-0.4-0.7l-0.8-0.2l-2.2-0.2l-0.6-0.3v-0.5l0.8-0.9l2.7-1.8l0.4-0.8l-0.4-0.4l-0.8-0.4l-0.4-0.9v-0.7
		l0.3-0.7l1.3-0.7l0.2-0.7l-0.6-0.6l0-0.6l0.6-1.1l0.5-0.2l0.9,0l1.2-1l-1.6-2.9L196,360l3.1-0.5l1.5-0.3l1.2-0.6l2.1-2.1l2.2-3
		l1.2-2.6l0.5-0.6l1.7-1.6l0.7-1.1l1.5-1.5l1.6-0.9l0.6-1.8l0.8-1.5l4.3-0.8l1,0.2l0.7,0.3l0.5,0.7l0.3,0.8l0.2,2.4l0.5,1.6l1.7,2.1
		l1.3,0.9l1,0.4l1.3-0.2l0.9-0.6l1-1.6l0.6-0.6l0.8-1.5l0-1.6l-0.7-0.5l-1.3,0.2l-0.9-0.2l0.8-1.5l1-0.6l1.3-0.5l2.8,0.6l2,1.5
		l1.2,1.1l2.3,1.1l1.5-0.9L241.5,343.1L241.5,343.1z"/>
	<path id="BGD2476" class="st0" d="M371.1,468.8l3.1,6.2l0.8,3.7l-0.2,2l-0.8,4l-0.2,2.1l-0.8,1.6l-1.9,0.1l-2.2-0.4l-1.7,0.2v0.5
		l0.4,0.7l0,0.7l-1,0.6l-0.9-0.1l-0.8-0.5l-0.5-0.8l-0.4-1.6l-0.3-0.6l0-0.7l1.3-2l0.2-1l0-2.2l-0.4-3.8l-1.9-6.3l0.5-3.5l0.9-1.9
		l0.8-0.9l1,0.1l1.3,1l0.4,1.2l-0.4,1.5l-0.6,1.5l-0.3,1.3l1.4-1.6l0.5-2.3l-0.1-2.4l-0.6-2.1l1.6-0.2l1.4-0.4v2L371.1,468.8
		L371.1,468.8z M362.6,466.9l-0.7,0.9l-0.7-1.6l1.4-7.8l-0.6-4.8l0.3-1.6l0.6-1.2l2.1-2.3l0.5,0.6l0.1,0.8l1,3.5l0.1,1.3l-0.3,1.5
		l-1.2,2.4l-0.7,3.3L362.6,466.9L362.6,466.9z M296.5,432.5l-1.6,1.1l-2.2-0.1l-1.4-0.4l-1-0.7l-0.5-1.4l2.5-3l1.6-2.5l0.6-1.6
		l0.8-4.6l0.1-6.6l0.5-7.3l1.5-0.2l3,1.6l1.9,1.6l0.7,2.3l1.3,1.2l0.9,3.4l0,2.2l0.4,3.1l-1.4,2.9l-0.9,1.5l-1.7,3.4l-1.8,1.5
		l-1.3,0.9l-1.1,0.2L296.5,432.5L296.5,432.5z M303.3,399.6l-2.2,0.1l-1.8-1.1l0.9-2.6l3.1-1.3l3.6-1l0.9,1.8l-0.9,2.2l-1.8,1.2
		L303.3,399.6L303.3,399.6z M337.7,404.2l-4.1,0.5l-2.7-1.5l-2.6-3.8l-1.5-3.8l-0.5-3l2-4.8l1.8-1l7.7,10.2l0.6,4L337.7,404.2
		L337.7,404.2z M316.2,253.5l-1.5-0.2l-1.5,0.6L312,255l-0.9,1.2l-3,5.3l-0.4,1.3l0,1.3l1,2.2l0.4,1.2l-0.3,1.8l-1.7,5.2l-0.9,1.6
		l-1.6,0.8l-1.6,0.2l-1.4,0.5l-0.8,1.8l0.4,2.1l1.4,0.8l1.5,0.5l0.5,1.5l-0.8,1.5l-1.2-0.1l-1.1,0.1l-0.3,2.3l0.4,1.6l2.5,4.8
		l0.6,1.7l0.7,3.1l0.8,1.6l0.7,0.7l1.5,0.9l0.6,0.9l0.2,0.7l0.4,2.3l1.2,4l0.9,1.9l1.1,0.9l1.1,0.3l0.3,0.6l-0.4,0.8l-0.9,0.9
		l-0.6,0.9l0.2,0.7l0.9,1.7l2,15.3l1.1,3.9l2.1,2.8l2.9,0.8l0.3-3.1l-1.6-7.9l0-4.2l0.5-2.2l1-1.3l1.9-0.1l1.6,1.3l1.3,1.8l0.7,1.3
		l0.3-0.7l0.6,0.8v1.6l1.3,1.3h0.2l0.6,2.9l0.4,1l2,6.9l0.4,2.4l0.2,0.3l0.8,0.2l0.2,0.3l0.1,2.8l0.4,1l1.1,1.3l1.1,0.4l1.2,0.2
		l1.2,0.6l0.5,1v0.9l0.3,0.3l1.4-0.8l0.5-0.7l0.7-1.7l0.8-0.3l1.9,0.5l1.8-0.6l2.3-0.5l1.1-0.7l0.6-0.7l1.5-1.4l0.6-0.7l1.5-2.2
		l0.1-1.3l0.4-0.4l1.3,0l1.3-1.5l0.4-0.9l-0.3-1.1l-1.1-2.9l-1.3-6.5l-1.3-3l-0.5-3.8l1.6-4.7l2.5-4.4l2.3-3.1l1.4-1.3l4.8-2.1
		l1.4-1l1.1-1.3l2-3.4l0.1-3.8l-2.3-11l-0.1-3.6l0.2-2.1l0.6-1.2l1.2-0.1l1.1,1.3l1.1,1.8l3.6,4.1l1.4,0.7l2-0.5l1.5-1.3l2.9-4
		l1.4-1.6l3.7-1.3l1.7,2.7l0.9,3.6l1.2,1.6l1.3-1.3l1.1-4.4l1.5-0.9l1.8,1l0.2,2.1l-1,4l0.2,3.2l3.3,10.8l0.5,4.6l0.4,1.4l0.4,0.8
		l1.1,1.1l0.5,0.8l0.2,0.7l-0.2,1.3l0.1,0.6l0.4,0.6l1.1,0.9l0.4,0.5l0.1,0.9l-0.2,1.9v1l0.4,1.6l0.4,0.9l0.1,1l-0.6,1.7l-1.6,3.3
		l-0.4,1.5l-0.1,3.8l2.2,13.4l-0.1,6.6l0.7,3.2l1.6,2.5l2.9,1.2l1.3,1.6l0.8,7.4l0.6,2.9l1,1.4l2.3,2.1l0.9,1.4l0.4,1.5l0.6,7.3
		l-0.2,5.4l0.3,1.6l1.1,2.9l0.1,1.6l5.1,30.8l-0.1,2.4l-1,0.5l-1.3,0l-1,0.9l2,6.3l1.1,6.2l0.2,1.6l1.3,5.7l0.2,2.8l-1.5,14.4
		l1.3,22.3l0.2,2.4l0.9,4.7l3.1,9.5l0.3,1.9l-0.8,1.5l-1.7,1.8l-2,1.4l-1.8,0.1l-1-1.2l-0.6-1.9l-0.7-3.8l-1.7-3.8l-2.2-0.5
		l-2.9,0.6l-3.7-0.4l-2-0.7l-0.9-0.5l-0.7-0.8L409,498l-0.2-1.6l-0.4-1.5l-1.1-1.5l-2.8-1l-3.3,4l-2.7,0l-1.5,0.2l-1,1.9l-1.2,4
		l-2.5,3.5l-0.4,1.6l0,1.8l0.6,3.7l-0.1,1.8l-0.8,4.2l0.5,1.7l0.6,1.3l2.1,1.9l1.1,2.8l3.5,3l-0.6,3.6l-0.1,3.9l0.4,3.8l0.9,3.4
		l2.5,3.8l0.4,1l0.2,1.8l1.6,4.9l0.6,1.2l0.3,1l-0.2,1l-0.7,0.7l-0.6-0.3l-0.4-0.7l-1.1-1.2l-2-4.8l-5.9-10.9l-1.5-6l-0.6-1
		l-4.6-3.9l-0.9-1.2l-1.4-2.7l-1-1.5l-3.9-4.6l-0.6-1.5l-0.1-2l0.7-6l-0.2-2.3l-0.5-1.8l-4.8-8.9l-0.9-0.9l-0.9-0.5l-0.9-1.4
		l-0.6-1.6l-0.3-1.5h0.5l0.7,0.6l0.6-1.6l1-1.8l1.4-1l1.6,0.6l-1.1-1l-0.9-1.7l-0.5-2v-1.7l0.8-1l1.2-1.1l0.8-1.3l-0.4-1.6l1.3-1.6
		l0.2-0.7l-0.4-0.9l0.5-0.9l-0.2-0.8l-0.6-0.6l-0.5-0.2l0.6-1.8l-0.3-0.2l-1.2,3.2l-1,1.3l-1.5,0l-0.7-1.1l0.2-1.5l0.5-1.5l0-1.1
		h-0.6l-0.4,1.6l-0.8-0.1l-0.8-1.1l-0.3-1.4l0.3-2.1l0.8-0.5l1.1-0.2l1.3-1.3l-0.5-0.6l-1.5,1l-0.6-0.8l0.5-1.4l2.1-0.9v-0.6l-4,0.3
		l-3.1,1l-0.8-0.8l0.2-2.2l0.9-2l1.6-0.8l-0.7-1l0.4-0.9l0.9-0.7l1.2-0.6v-0.7l-0.9,0.1l-0.8,0.4l-0.7,0.6l-0.5,0.9l-0.5-1.2
		l-0.4-1.9l-0.4-3.7l-0.2-0.9l-1.3-1.4l-0.3-0.9v-3.5l-2.2-9.6l-0.2-3.3l0.9,0.4l-0.2-1l-0.8,0.2l-0.6,1.2v1.8h-0.5l-0.9-1.6
		l-0.9-2.1l-0.5-2.3l-0.1-2.3l0.4-1.5l1.6-1.6l0.4-0.9l-0.1-1.5l-0.8-0.8l-0.9-0.4l-0.6-0.5l-0.3-2.3l1.5-1.1l2.3-0.7l1.9-1l0.9-1.6
		l2-6.7h-1.8l-0.2,1.4l-0.9,3.6l0.2,0.7l-0.6,0.5l-1,1.1l-1.3,1.1l-1.5,0.5l-0.3,0.5l-2.1,1.2l-0.6,0.9l0.2,1.5l0.9,0.7l1.1,0.4
		l0.8,0.6l0,1.8l-1.5,1.1l-1.9-0.2l-1.3-2.1l-1.5-10.8l-0.9-3.4l-5.9-11.6L337.1,376l-2.8-1.1l-1.5-1.4l-1.2-1.7l-0.7-1.5l-0.7,0.4
		l-0.6-0.4l-0.4-1L329,368l0.2-1.1l0.8-1.2l0.6-2.7l1.4-4l0-2.3h-0.6l-0.3,1.8l-1.5,4.9l-0.9,1l-1.9,0.6l-1.2,1.5l-0.4,2.1l0.3,2.3
		l-1.3-1l-1.3-0.6l-1.5-0.3l-1.9-0.1v0.7l1.9,0.6l0.2,0.9l-0.9,0.8l-1.5,0.4l-4.5,0.1l1.6,0.5l1.4,0.6l0.7,0.6l-0.2,1.4l-1.1,0.8
		l-1.5,0.4H314l-2.7-0.6l-0.7,0.1l-0.1-0.4v-1.7l-1.1-0.4l-1.3-0.2l-3,0v0.6l1.1,1l0.4,1l-0.6,0.7l-2-0.1v0.7l5,1.3l2.3,1l1,1.9
		l-0.3,1.2l-0.7,1.3l-1,3.6l-1.8,1.7l-1.6,1.3l-2.3,0.6l-4.3,0.9l-3.3-1.6l-1.7-2.5l-0.9-4l-0.9-1.1l-0.9-1.6l-1-2.9l-0.7-0.8
		l-1.3,0.4l1.3,1.3l1.2,2.6l0.7,2.7l-0.2,1.8l-1.8,0.9l-2.8,0.4l-2.6-0.1l-1.2-1l-0.5-1.3l-2.4-1.7l-0.6-0.9l-0.3-0.9l-1.3-1.7
		l-0.7-2.7l-1-0.4l-2.5,0.2l-0.4-0.5l-1-3.4l-0.7-0.6l-1.5-0.9l-0.6-1.7l-1.3-1.8l-0.3-0.6l-0.1-1l-1-2.6l-0.6-3.2l-0.7-1.6
		l-0.8-1.4l-0.6-1.6l-0.2-2.1l-0.4-1.2l-6.7-9.2l-0.9-2.5l-0.2-1.1v-1l1-5.8l0.1-3.9l0.5-2.1l1-1.8l0.7-1.8l-0.4-1.8h0.6l-1.5-3.1
		l-0.1-1.3l1-0.8l-0.7-0.2l0-0.5l-2.2,0.8l-1.5-2l-0.9-2.8l-0.2-1.8l0.1-5.6l0.7-2.2l2.1-1.3l5.1,0l2.1-1.1l0-3.5l-0.4-1.3l-0.8-0.6
		l0.8-1.2l1.9-1.3l0.9-1l-0.6-1.1l0.4-0.8l1-0.5l1.3-0.2l0.2-0.5l-0.8-1.1l-2.3-2.4l0.8-0.8l0.6-1.3l0.1-0.7l-0.2-0.7l-0.9-1
		l-1.3-0.9l-0.3-0.6l0.2-0.9l1.4-2.1l1.8-4.7l0.1-1.4l-0.5-2.1l0-0.8l0.9-1.3l1.1-0.9l1.2-0.3l2.7,0.1l0.7-0.1l1.7-0.8l2.6,1.7
		l1,0.3l0.8-0.4l1.2-1l3.3-4.6l1.8-4l0.4-2.3l-0.4-1.8l0.8-2.3l1-1l1.4-0.9l1.7-1.9l0.6-2l-1.7-1l0.6-1.4l-1.6-2.3l0.1-0.4l-0.4-1.9
		l0.5-0.3l2-0.7l2.9-4l1.2,0.9l0.6,0.2l0.6-0.1l0.2-0.8l-0.2-1.1v-1l0.8-0.4l1.7-0.2l1.5-0.5l1.1-0.8l7.2,3.8l2.2,0.4l2.9-2.4
		l1.2-0.6l1-0.2l1.1,0.4v0.6l-1.5,1.3l-2.4,1.4l-0.6,0.6l0.5,0.7l2.1,0.6l0.6,0.5l-0.6,0.3l-1.9,0.4l-0.6,0.3l-0.6,0.7l0,1.6
		l0.6,1.4l0.4,1.6l-0.1,1.2l0.3,2.4l0.9,3.2l1.3,1.6l0,0.9L316.2,253.5L316.2,253.5z"/>
	<path id="BGD2488" class="st0" d="M316.2,253.5l0.4-2.2l0-0.9l-1.3-1.6l-0.9-3.2l-0.3-2.4l0.1-1.2l-0.4-1.6l-0.6-1.4l0-1.6l0.6-0.7
		l0.6-0.3l1.9-0.4l0.6-0.3l-0.6-0.5l-2.1-0.6l-0.5-0.7l0.6-0.6l2.4-1.4l1.5-1.3v-0.6l-1.1-0.4l-1,0.2l-1.2,0.6l-2.9,2.4l-2.2-0.4
		l-7.2-3.8l0.7-1.1l0.7-0.6l1.3-3.3l2.9-1.3l1.9-1.3l-1.2-1.9l1-1.1l0.6-0.2l0.4-0.9l-0.2-0.7l-1-1.3l-1.9-1.7l1.5-1.1l0.1-1.2
		l-0.5-2.3l-1-0.5l-1-0.1l-0.6-0.4l-0.7-0.8l0.1-0.7l0.9-0.9l0.8-1.1l0.9-1.8l1.2-3.2l-1.6-0.9l-1-1l-0.4-1l-1.1-1.4l0-0.7l2-1
		l0.3-0.5l0.1-1.8l0.9-1.6l0-0.7l-0.4-1.2l-0.5-0.7L307,186l-2.7-0.1l-1.6,0.2l-0.5-0.2l-0.6-1.7l0.6-5l-0.3-4.3l-0.6-2l-1.1-4.3
		l-10.4,1.1l-2.5-1.1l-5.7-9.5l1-3.5l0.8-1.6l0.9-1.4l0.3-0.9l0-1.3l-1.3-4.2l0.2-4.1l0.8-0.1l2.7-1l14-2.3l4.8,0.2l1.1-0.2l1.9-1
		l0.9,0l4.2,2.2l12.9,3.9l3.4,0.4l0.9-0.1l1.8-0.6l1.9-0.4l1.5-1.2l0.7-0.3l1.5,0.1l0.6,0.7l0.6,1.1l1.4,1.2l1.5,0.4l2.2,0.1
		l2.1-0.3l0.9-0.9l0.4-1.6l1,0l1.9,0.8l0.6-0.5l0.5-1.2l0.6-0.5l1.3-0.2l4.2,0.4l9.3-1.2l4.8,0.7l4-1.3l2.8,0.1l2.8,0.7l2.3,0.9
		l0.7,0.6l0.9,1.4l0.5,0.5l0.7,0.2l1.3,0.1l1.1,0.6l1.2-0.4l0.7,0.1l0.6,0.5l1.3,1.7l1.2,1.1l1,0.8l1.2,0.5l1.6,0.4l4.5,0.6l0.8,0.6
		l1.4,2l2.5,1.1l2.2,1.3l0.5,2.7l2.2,0.7v0.3l2.8,2.1l0.8,0.4l0.4,0.4l-0.7,0.7l2.1,0.9l0.8,0.8l0.7,1.5l0.3,1.7l-0.3,1.1l-1.2,1.9
		l-3.1,0.9l-5.3,1.8l-0.9-0.1l-0.6-0.3l-0.4-0.5l-0.1-0.7l-5.9-3.6l-3.4-1.1l-2.5,1.1l-0.4,1.6l0.4,1.7l1.1,3.1l0.2,1.5l0,1.5
		l-0.2,1.5l-4.4,12.5l-0.9,3.7l-0.4,3.3l-0.4,1.4l-0.9,1.4l-1.3,1l-1.3,0.8l-1.1,1.1l-0.4,1.8l0.5,5.8l-0.3,2.7l-1.7,2.3l-2.2,1.1
		l-2.5,0.2l-7.3-0.6l-0.1,1.1l2,3.3l0.1,1.3l-1.7-0.7l-1.9-1.3l-0.8-0.7l-1.9,0.6l-0.3,1.7l0.9,3.8l-0.1,1.9l-1.9,8.1l-0.6,1.6
		l-1.1,0.7l-1.8-0.4l-2.7-2.7l-0.2-0.9l-0.1-2.2l-0.2-0.6l-0.9,0l-5.5-1.2l-0.9,1.3l0.2,1.8l0.6,1.9l0,1.6l-1,1.5l-1.5,0.6l-1.7-0.2
		l-1.6-1l-0.8-1.4l-1.5-3.9l-0.9-0.3l-0.4,1.1l-0.9,6.1l-0.7,2l-0.9,1.3l-1.3,0.9l-2,0.6l-3.6,0.4l-3.2-0.3l-6.6-1.4l-3.6,0.3
		l-1,2.5l-0.2,3.6l-0.9,3.9l-1,0.7L316.2,253.5L316.2,253.5z"/>
	<path id="BGD3255" class="st0" d="M174.6,141.8l-1.2,5.2l-0.8,5.1l-0.5,8.1l0.1,0.8l2.1,10.4l0.8,1.9l1.2,2.3l0.9,1l1.5,1l2.6,1.4
		l1.6,1.5l0.7,0.9l0.6,1l0.4,1.8l0,2l-1,4.4l-0.1,1.1l0.4,1.9v1.2l-0.6,2.4l-1,1.2l-0.4,1.1l0.2,1.2l0.1,1.8l-0.1,1.9l-0.7,3
		l-0.1,3.6l-0.8,6.9v1l0.5,3.7l0,3.8l0.1,0.8l3.2,3.6l1.2,1.1l0.1,2.6l1.6,0.4l0.3,0.9l-0.2,0.9l0.4,1l-0.4,1.4l-0.2,1.4l0.2,0.2
		l-0.9,1.6l-0.2,3.4l-0.6,1.3l-0.8,1.3l-1.1,1l-7.5,6.2l-1.1,2.9l-0.4,2.1l0.2,1.4l0.9,4.4v1.1l-2,0.5l-4.8,0.4l-1.4,0.6l-2.6,1.7
		l-1.5,0.5l-2.2-0.4l-3.5-3.2l-2-1.2l-7.8-3.4l-2.9-1.9l-2.1-0.9L141,259l-2.3-0.2l-7.2,0.8l-2.4-0.4l-1.9-0.9l-1.9-1.2l-3.4-2.9
		l-0.9-1l-0.2-0.9l0.4-2.1v-1l-0.4-0.9l-1.8-2.3l-0.8-2.4l-3.2-3.1l-2-2.7l-0.7-0.6l-1.6-0.8l-1.7-0.1l-0.9,1.2l-1.2,0.8l-5.6,2.7
		l-1.6,0.4l-1.7-0.3l-0.7-0.4l-1.3-0.9l-2.1-1.1l-0.6-0.5l-1.4-2.1l-0.4-1.4l0.3-0.8l1-1.5l0.3-0.9l-0.2-0.4l-0.2-1.6l-0.2-0.4
		l-0.5-3.8l-2-2.7l-2.9-1.7l-1.9-0.4l-0.9,2.2l-1.3,2l-1.9,0.1l-4.3-1.5l-5.6-0.2l-2-0.4l-6.4-5.2l-22.9-12l-2.5-0.6l-0.2-0.6
		l-0.8-1.4l-1.1-1.4l-0.1-0.5v-5l-0.2-0.6l-1.3-1.3l-0.8-2l-1.4-0.6l-1.7-0.5l0.5-2.9l0.7-1.7l1.2-1.6l0.4-4.2l1-0.4l1.1-0.2
		l0.6-0.9l0.1-1.3l0.3-1.1l0.6-0.7l1.1,0.2l0.8-1.7l1.2-1.2l0.8-1.3l-0.2-1.8l-1.1-3.3l-0.4-0.9l-0.5-0.5v-0.4l4.3-2.4l1.6-0.6
		l1.7,0.2l1.4,1l1.3,1.6l0.8,1.9l0.1,1.8l1.1,0l3.7,1l1.4,0.1l0.8-0.6l1.6-2.8l3-4l1.1-2.2l0.2-2.5l2-2.5l1.1-2.9l0.7-6.3l-0.2-5.4
		l0.8-1.6l3-0.5l1.4,0.4l2.7,1.1l3.1,0.9l1-0.2l0.6-0.4l1.1-1.2l0.8-0.3l3.1,0.1l2.6,0.5l5.2,2l5.2,0.5l0.7-0.5L98,139l0.6-0.7
		l0.7-0.1l1.1,0.5l6,2.1l2.2,0.2l-1.3-2.1l1.6-0.4l0.2-0.9l-0.2-1.3l0.1-1.3l0.8-1.1l3.3-2.4l0.6-0.9l0.2-1l-0.2-0.9L113,128
		l8.6,0.3h9.4l3.6,0.9l0.3,3.7l2.2,4.9l2.8,2.7l5.8-3.4l5.2,1.2l8.3,2.7h8.6L174.6,141.8L174.6,141.8z"/>
	<path id="BGD5492" class="st0" d="M184.8,118.3l-1.4,0.3l-1.3,0.8l-0.8,1.4l-2,4.8l0.8,5.2l-0.5,2.4l-1.3,1.9l-1.1,1.2l-0.8,1.3
		l-1.9,4.1l-6.7-0.7h-8.6l-8.3-2.7l-5.2-1.2l-5.8,3.4l-2.8-2.7l-2.2-4.9l-0.3-3.7l-3.6-0.9h-9.4L113,128l-4.2,0.2l-2.1-0.3l-2-1.9
		l-1.8-0.1l-0.9-0.2l-0.6-0.5l-2.1-2.6l-0.4-1.1l-0.1-0.9l-0.2-0.8l-0.9-0.7l0-0.6l1.5-3.4l-0.1-2.1l-0.8-1.3l-1.1-1l-1.1-1.3
		l-0.8-0.7l-2.7-1.1l0.1,1.7l-0.9,0.4l-1.6-0.2l-0.7,0.1l-0.9,0.8l-1.5,1.7l-1,0.3l-1.8-0.4l-2.8-1.8l-1.7-0.8l-3.7-0.2l-1.8-0.4
		l-0.9-0.8l-0.7-1.4l-2.3-1.8l-0.9-1.9l-3.3-1.7L65,100l-0.4-5.9l-2.3-2.6L56,87.1L50.8,81l-2.8-1.4l-3.9,1.1l-1.4,0.8l-1.7,0.8
		l-1.6,0.1l-1.1-1.2l-0.6-1.8l-0.4-0.8L35.8,77l0.1-1.7l-0.6-1.4l-0.7-4.3l1.2-1.4l1.6-5.5l1.7-3.3l2.2-1.7l0.6-1.8l-0.1-1l-1-0.9
		l-0.3-0.5l-0.1-0.9l0.4-1l1-3.1l0.7-1.2l2.9-1.8l0.8-0.7l1.2-1.3l0.9-0.4l1.8-0.4l5.1-1.7l1.5-1l0.7-1.5l-0.1-3.5l0.3-1.4l1.3-1.9
		l1.3-1.2l4.1-2.6l0.7-0.9l0.4-0.9l0.5-0.4l1.5,0.9l0.8,0l1.5-0.3l1.9,0.3L71.3,24l-1.7-5.3l-1.3-2.1L66,15.4l-5-1l-2-0.9l-0.7,0
		L58,14.3l-0.2,2.3l-0.4,0.6l-1.1-0.3l-0.7-1.3l-0.1-1.6l0.5-1.3l1.1-1.9l1.8-6.3L59.5,3l1.1-1.8L61.7,0l0.8,0.5l0.1,1.8l-0.1,2.1
		l0.2,1.9l1.2,1.3l3.1,1l1.4,0.6l1.1,1.3l1.1,0.9l1.6,1.8l1.7,1.2l2,0.9l0.7,0.1l1.9,0l1.1,0.5l1.1,2.1l0.7,0.9l1.9,1l2,0.5
		l-0.4,0.8l-0.2,0.9l0.2,0.6l1.4,0.6l-0.1,1.7l0.5,0.7l2,1l1.2,0.9l0.2,1.2l-0.8,1.8l-1.1,1L85,33.1l-0.6,0.7l1.5,1.1l7.3-2.7
		l3.1,1.2l0.7,1.5l0.6,1.7l0.9,1.4l1.4,0.7l1.4-0.6l1.3-3.2l1.7-1.2l2.4,0.4l3.8,3.9l2.5,0.8l3.9-1l1.7-1.3l-0.4-1.8l-1-0.3l-1,0
		l-0.6-0.7l0.3-2.1l-0.8,0.5l-0.8,0.2l-0.7-0.2l-0.6-0.8l-0.8-2.8l-2.1-1.1l-2.5-0.9l-1.8-1.9l0-1.6l0.7-1.8l1.1-1.6l1.1-1l1.4-0.7
		l0.8,0.2l0.8,0.8l1.4,1l1,0.5l1.3,1.5l0.8,0.6l1,0.4l1.9,0.5l0.8,0.6l0.4,1.2l-0.3,0.9l0.1,0.6l1.4,0.6l2.1,0.6l0.6,0.7l0,1.3
		l-0.8,0.4l-1.3-0.6l-1,0.1l0.1,2.6l0.6,1.6l1.7,2.9l0.6,1.5l0.7,5.9l0.6,1.7l1.1,1.3l5.8,2.5l1.3,0.8l0.9,1.2l0.6,1.8l0.7,0.9
		l3.1,1.4l2.1,2.5l1.6,1.1l1.8,0.8l1.4,0.2l1.4-0.8l1.1-1h1l1.3,2l1.3,0.2l0.5-0.2l4.7-0.4l1.3,0.4l1.3,2.1l0.8,1l0.9,0.5l1.2-0.2
		l0.6-0.9l0.2-1.3l-0.1-1.3l0.7-2.7l3.8-3.2l0.7-1.7l-0.6-1.2l-1.1,0l-1.2,0.2l-0.9-0.4V51l1-0.8l1.3-0.7l1.1-0.7l-1.6-0.2l-1.4-0.7
		l-0.6-1.2l0.9-1.8l1.2-0.8l0.6-0.1l1.8,0.6l0-0.5l-0.6-1.1l-0.2-2.9l0.6-0.8l1.9-0.7l1.6,0.3l0.5,1.5l-0.1,4.1l0.1,0.6l1.1,0.5
		l0.6,0.1l1.7-0.2l0.8,0.1l1,0.8l0.5,1.5l0.4,1.6l0.7,1.3l1.1,1.6l0.1,1.2l-0.2,1.2l0.1,1.7l0.5,0.9l1.8,2.3l1.2,2l0.5,0.2l0.6-0.2
		l0.6-0.7l0.4-0.1l1.3,1.6l-0.2,1.3l-1.3,1l-1.7,0.6l1.6,1l1.3,0.1l0.7,0.6l-0.4,2.3l-3.8,6.7l-0.3,2.4l1.6,8.7l2,4.9l0.9,3.8
		l-0.8,6.8l-0.2,7.3l-2,7.3L184.8,118.3L184.8,118.3z"/>
	<polygon class="st0" points="90.3,68.7 90.3,68.7 90.3,68.7 	"/>
	<polygon class="st0" points="92.2,68.6 92.2,68.6 92.2,68.6 	"/>
	<polygon class="st0" points="90.9,67.7 90.9,67.7 90.9,67.7 	"/>
</g>
<g>
	<circle class="st1" cx="169.5" cy="157.7" r="27.5"/>
</g>
</svg>
